<svg width="445" height="419" viewBox="0 0 445 419" fill="none" xmlns="http://www.w3.org/2000/svg">
<path d="M207.559 401.664L206.405 401.298L205.272 401.723C163.941 417.21 115.65 419.003 77.8767 406.23C40.2371 393.504 13.5 366.579 13.5 324.498C13.5 277.674 13.7737 211.44 34.0004 156.931C44.0879 129.746 59.0683 105.688 81.2737 88.4212C103.439 71.1853 133.079 60.5 172.902 60.5C212.809 60.5 240.795 70.0001 261.388 85.2877C282.023 100.607 295.587 121.995 306.176 146.411C314.094 164.67 320.251 184.364 326.493 204.328C328.628 211.159 330.774 218.022 333.004 224.87C341.574 251.195 351.346 277.141 366.498 299.041C366.287 361.203 348.11 393.072 320.405 406.596C292.074 420.425 252.378 415.892 207.559 401.664Z" fill="#F0E9D2" stroke="#678983" stroke-width="7"/>
<path d="M93.5 167.317C93.5 185.245 91.9423 197.913 89.183 206.861C86.4457 215.737 82.5932 220.752 78.0713 223.726C73.4654 226.755 67.708 227.976 60.5424 228.354C55.9871 228.595 51.2043 228.494 45.9934 228.384C42.8499 228.317 39.5505 228.247 36.0514 228.247C27.9793 228.247 22.6726 225.618 18.8392 220.906C14.8271 215.975 12.1477 208.42 10.3111 198.034C8.48465 187.707 7.56466 175.059 6.73776 160.277C6.54319 156.799 6.35389 153.206 6.15889 149.504C5.5288 137.544 4.83914 124.453 3.71968 110.461C2.44289 94.5022 6.71679 73.4503 16.751 57.6995C21.7437 49.8624 28.0673 43.4847 35.681 39.6177C43.0798 35.8599 51.8917 34.3704 62.2891 36.431C74.986 45.4588 82.8254 59.8391 87.4672 81.1346C92.1917 102.809 93.5 131.167 93.5 167.317Z" fill="#F0E9D2" stroke="#678983" stroke-width="7"/>
<path d="M174.5 162.53C174.5 181.025 173.163 194.364 170.827 203.979C168.492 213.589 165.225 219.212 161.564 222.598C157.947 225.945 153.574 227.452 148.269 228.085C144.179 228.573 139.839 228.521 135.029 228.465C133.409 228.445 131.735 228.426 130 228.426C128.265 228.426 126.591 228.445 124.971 228.465C120.161 228.521 115.821 228.573 111.731 228.085C106.426 227.452 102.053 225.945 98.4357 222.598C94.7748 219.212 91.5077 213.589 89.1732 203.979C86.8373 194.364 85.5 181.025 85.5 162.53C85.5 125.141 85.5176 88.4361 91.4213 61.0632C94.3704 47.3896 98.7131 36.4455 104.939 28.9704C111.035 21.6526 119.055 17.5 130 17.5C140.945 17.5 148.965 21.6526 155.061 28.9704C161.287 36.4455 165.63 47.3896 168.579 61.0632C174.482 88.4361 174.5 125.141 174.5 162.53Z" fill="#F0E9D2" stroke="#678983" stroke-width="7"/>
<path d="M349.582 156.607C349.582 177.51 348.243 192.637 345.888 203.576C343.53 214.531 340.214 220.987 336.495 224.869C332.861 228.663 328.521 230.332 323.299 231.035C319.24 231.581 314.94 231.524 310.14 231.46C308.515 231.438 306.832 231.416 305.082 231.416C303.332 231.416 301.649 231.438 300.024 231.46C295.223 231.524 290.924 231.581 286.865 231.035C281.643 230.332 277.303 228.663 273.668 224.869C269.949 220.987 266.634 214.531 264.275 203.576C261.921 192.637 260.582 177.51 260.582 156.607C260.582 140.87 260.092 125.513 259.631 111.021C259.474 106.099 259.32 101.275 259.19 96.5711C258.674 77.9439 258.527 61.1985 259.939 47.1249C261.359 32.9815 264.315 22.0457 269.622 14.6959C274.742 7.60617 282.309 3.5 294.082 3.5C305.89 3.5 315.049 7.65328 322.312 15.0919C329.676 22.6346 335.243 33.7211 339.347 47.7576C347.567 75.8681 349.582 114.564 349.582 156.607Z" fill="#F0E9D2" stroke="#678983" stroke-width="7"/>
<path d="M266.5 159.025C266.5 178.448 264.982 192.452 262.332 202.544C259.687 212.616 255.979 218.554 251.761 222.164C247.559 225.76 242.46 227.382 236.33 228.059C231.635 228.577 226.639 228.522 221.162 228.463C219.331 228.442 217.446 228.422 215.5 228.422C213.554 228.422 211.669 228.442 209.838 228.463C204.361 228.522 199.365 228.577 194.67 228.059C188.54 227.382 183.441 225.76 179.239 222.164C175.021 218.554 171.313 212.616 168.668 202.544C166.018 192.452 164.5 178.448 164.5 159.025C164.5 119.746 164.52 81.2009 171.221 52.4574C174.565 38.1113 179.494 26.6003 186.593 18.7146C193.57 10.9652 202.831 6.5 215.5 6.5C228.169 6.5 237.43 10.9652 244.407 18.7146C251.506 26.6003 256.435 38.1113 259.779 52.4574C266.48 81.2009 266.5 119.746 266.5 159.025Z" fill="#F0E9D2" stroke="#678983" stroke-width="7"/>
<path d="M415.221 172.981C419.886 168.502 426.12 165.251 435.353 164.614C435.686 171.081 436.819 178.344 438.005 185.942C438.479 188.978 438.961 192.067 439.404 195.18C441.2 207.811 442.457 221.342 440.543 235.097C438.639 248.789 433.585 262.749 422.657 276.226C411.803 289.614 395.023 302.684 369.409 314.496C336.16 314.127 309.5 289.46 309.5 253.972C309.5 244.93 311.224 238.951 313.944 234.919C316.619 230.953 320.53 228.468 325.774 226.937C331.104 225.381 337.624 224.866 345.23 224.777C349.448 224.727 353.735 224.803 358.24 224.883C362.031 224.95 365.977 225.02 370.165 225.02C380.286 225.02 386.973 220.583 391.869 214.192C395.843 209.004 398.741 202.358 401.517 195.993C402.003 194.877 402.486 193.77 402.97 192.681C406.329 185.126 409.853 178.135 415.221 172.981Z" fill="#F0E9D2" stroke="#678983" stroke-width="7"/>
<path d="M435.5 157C435.5 163.417 433.195 171.311 428.794 179.673C424.415 187.992 418.073 196.561 410.286 204.285C394.656 219.786 373.616 231.5 351.5 231.5C329.401 231.5 308.874 219.803 293.753 204.324C278.539 188.749 269.5 170.08 269.5 157C269.5 150.715 271.579 146.187 275.21 142.732C278.961 139.162 284.615 136.509 292.103 134.625C307.142 130.841 328.05 130.5 351.5 130.5C374.942 130.5 396.368 130.84 411.922 134.631C419.676 136.521 425.592 139.187 429.532 142.782C433.339 146.256 435.5 150.772 435.5 157Z" fill="#F0E9D2" stroke="#678983" stroke-width="7"/>
</svg>
