<svg width="456" height="533" viewBox="0 0 456 533" fill="none" xmlns="http://www.w3.org/2000/svg">
<path d="M207.559 515.664L206.405 515.298L205.272 515.723C163.941 531.21 115.65 533.003 77.8767 520.23C40.2371 507.504 13.5 480.579 13.5 438.498C13.5 391.674 13.7737 325.44 34.0004 270.931C44.0879 243.746 59.0683 219.688 81.2737 202.421C103.439 185.185 133.079 174.5 172.902 174.5C212.809 174.5 240.795 184 261.388 199.288C282.023 214.607 295.587 235.995 306.176 260.411C314.094 278.67 320.251 298.364 326.493 318.328C328.628 325.159 330.774 332.022 333.004 338.87C341.574 365.195 351.346 391.141 366.498 413.041C366.287 475.203 348.11 507.072 320.405 520.596C292.074 534.425 252.378 529.892 207.559 515.664Z" fill="#F0E9D2" stroke="#678983" stroke-width="7"/>
<path d="M93.5 254.444C93.5 279.65 91.9382 297.654 89.1095 310.496C86.2773 323.354 82.2534 330.673 77.6238 334.935C73.0616 339.136 67.4628 340.781 60.4689 341.299C55.9563 341.632 51.267 341.493 46.1027 341.339C42.9517 341.245 39.6238 341.146 36.0514 341.146C32.1339 341.146 28.952 340.24 26.2826 338.587C23.5928 336.921 21.2256 334.374 19.1503 330.803C14.9373 323.552 12.1934 312.559 10.3369 297.863C8.04408 279.712 7.18367 256.811 6.17045 229.842C5.54101 213.089 4.85259 194.765 3.72513 175.036C2.41993 152.197 6.77819 122.226 16.9848 99.7962C22.0884 88.5805 28.5149 79.5591 36.1243 74.1484C43.3861 68.9849 51.8677 66.9912 61.8867 69.729C74.7383 82.5464 82.727 103.086 87.4286 133.283C92.1952 163.899 93.5 203.828 93.5 254.444Z" fill="#F0E9D2" stroke="#678983" stroke-width="7"/>
<path d="M174.5 231.806C174.5 257.774 173.16 276.647 170.78 290.354C168.392 304.106 165.009 312.334 161.171 317.301C157.467 322.096 153.153 324.09 148.108 324.932C144.113 325.599 139.899 325.53 135.118 325.451C133.483 325.424 131.782 325.396 130 325.396C128.218 325.396 126.517 325.424 124.882 325.451C120.101 325.53 115.887 325.599 111.892 324.932C106.847 324.09 102.533 322.096 98.8285 317.301C94.991 312.334 91.6083 304.106 89.2205 290.354C86.8405 276.647 85.5 257.774 85.5 231.806C85.5 179.587 85.5092 127.943 91.4591 89.3461C94.4376 70.0252 98.8548 54.3558 105.257 43.6013C111.571 32.9963 119.572 27.5 130 27.5C140.428 27.5 148.429 32.9963 154.743 43.6013C161.145 54.3558 165.562 70.0252 168.541 89.3461C174.491 127.943 174.5 179.587 174.5 231.806Z" fill="#F0E9D2" stroke="#678983" stroke-width="7"/>
<path d="M349.5 239.25C349.5 268.595 348.156 289.96 345.759 305.504C343.355 321.103 339.936 330.518 336.02 336.226C332.247 341.728 327.914 343.935 322.965 344.865C319 345.61 314.83 345.533 310.051 345.445C308.406 345.414 306.688 345.383 304.882 345.383C303.075 345.383 301.358 345.414 299.712 345.445C294.933 345.533 290.763 345.61 286.798 344.865C281.849 343.935 277.516 341.728 273.743 336.226C269.828 330.518 266.408 321.103 264.004 305.504C261.607 289.96 260.263 268.595 260.263 239.25C260.263 217.08 259.772 195.597 259.307 175.297C258.531 141.364 257.831 110.738 259.627 85.7363C261.062 65.7795 264.068 50.0085 269.599 39.3131C272.337 34.0189 275.625 30.1045 279.524 27.5052C283.395 24.924 288.075 23.5 293.854 23.5C305.236 23.5 314.347 29.0566 321.796 39.7109C329.339 50.4997 335.013 66.331 339.174 86.2027C347.487 125.908 349.5 180.389 349.5 239.25Z" fill="#F0E9D2" stroke="#678983" stroke-width="7"/>
<path d="M267.5 218.707C267.5 246.034 265.978 265.892 263.277 280.312C260.569 294.768 256.731 303.44 252.349 308.698C248.086 313.813 243.068 315.982 237.179 316.893C232.573 317.606 227.696 317.531 222.245 317.448C220.4 317.42 218.489 317.391 216.5 317.391C214.511 317.391 212.6 317.42 210.755 317.448C205.304 317.531 200.427 317.606 195.821 316.893C189.932 315.982 184.914 313.813 180.651 308.698C176.269 303.44 172.431 294.768 169.723 280.312C167.022 265.892 165.5 246.034 165.5 218.707C165.5 163.746 165.511 109.401 172.265 68.7871C175.645 48.4629 180.658 31.9694 187.937 20.6367C195.106 9.47431 204.318 3.5 216.5 3.5C228.682 3.5 237.894 9.47431 245.063 20.6367C252.342 31.9694 257.355 48.4629 260.735 68.7871C267.489 109.401 267.5 163.746 267.5 218.707Z" fill="#F0E9D2" stroke="#678983" stroke-width="7"/>
<path d="M390.514 287.935C399.707 284.242 410.964 282.592 433.544 282.504C441.24 295.461 449.934 319.814 445.125 346.54C440.176 374.042 420.792 404.797 369.409 428.496C336.16 428.127 309.5 403.46 309.5 367.972C309.5 358.975 311.162 352.311 313.837 347.002C316.516 341.683 320.322 337.504 324.94 333.621C328.396 330.715 332.164 328.083 336.225 325.247C337.688 324.225 339.19 323.176 340.728 322.078C346.335 318.078 352.22 313.566 357.741 307.726C362.492 304.746 366.619 302.018 370.261 299.611C372.437 298.174 374.439 296.85 376.298 295.655C381.452 292.344 385.765 289.843 390.514 287.935Z" fill="#F0E9D2" stroke="#678983" stroke-width="7"/>
<path d="M430.123 337.444C417.207 338.552 401.748 331.647 388.85 318.382C376.033 305.2 366.136 286.097 364.215 263.699C362.29 241.264 368.642 218.747 378.955 201.567C389.372 184.212 403.279 173.138 415.932 172.052C422.194 171.515 426.882 173.199 430.635 176.521C434.514 179.953 437.64 185.36 440.157 192.66C445.213 207.32 447.34 228.122 449.345 251.486C451.349 274.842 452.842 296.218 450.394 312.04C449.174 319.928 447.024 326.05 443.779 330.282C440.642 334.372 436.328 336.912 430.123 337.444Z" fill="#F0E9D2" stroke="#678983" stroke-width="7"/>
<path d="M316 334.5C300.689 370.619 288.553 385.079 166.07 380.464C10.8918 368.925 21.1395 378.541 21.1395 332.77C21.1395 306.43 86.027 292 166.07 292C246.113 292 326.5 309.73 316 334.5Z" fill="#F0E9D2"/>
</svg>
