<svg width="169" height="175" viewBox="0 0 169 175" fill="none" xmlns="http://www.w3.org/2000/svg">
<mask id="path-1-inside-1_0_1" fill="white">
<path d="M158 73.5C158 63.8478 156.099 54.2902 152.405 45.3728C148.711 36.4553 143.297 28.3528 136.472 21.5277C129.647 14.7025 121.545 9.28857 112.627 5.59485C103.71 1.90113 94.1522 -4.21909e-07 84.5 0C74.8478 4.21909e-07 65.2902 1.90113 56.3728 5.59486C47.4553 9.28858 39.3528 14.7025 32.5276 21.5277C25.7025 28.3528 20.2886 36.4553 16.5949 45.3728C12.9011 54.2902 11 63.8478 11 73.5L34.0106 73.5C34.0106 66.8696 35.3165 60.3042 37.8539 54.1785C40.3912 48.0529 44.1102 42.487 48.7986 37.7986C53.487 33.1102 59.0529 29.3912 65.1785 26.8539C71.3042 24.3165 77.8696 23.0106 84.5 23.0106C91.1304 23.0106 97.6958 24.3165 103.821 26.8539C109.947 29.3912 115.513 33.1102 120.201 37.7986C124.89 42.487 128.609 48.0529 131.146 54.1785C133.683 60.3042 134.989 66.8696 134.989 73.5H158Z"/>
</mask>
<path d="M158 73.5C158 63.8478 156.099 54.2902 152.405 45.3728C148.711 36.4553 143.297 28.3528 136.472 21.5277C129.647 14.7025 121.545 9.28857 112.627 5.59485C103.71 1.90113 94.1522 -4.21909e-07 84.5 0C74.8478 4.21909e-07 65.2902 1.90113 56.3728 5.59486C47.4553 9.28858 39.3528 14.7025 32.5276 21.5277C25.7025 28.3528 20.2886 36.4553 16.5949 45.3728C12.9011 54.2902 11 63.8478 11 73.5L34.0106 73.5C34.0106 66.8696 35.3165 60.3042 37.8539 54.1785C40.3912 48.0529 44.1102 42.487 48.7986 37.7986C53.487 33.1102 59.0529 29.3912 65.1785 26.8539C71.3042 24.3165 77.8696 23.0106 84.5 23.0106C91.1304 23.0106 97.6958 24.3165 103.821 26.8539C109.947 29.3912 115.513 33.1102 120.201 37.7986C124.89 42.487 128.609 48.0529 131.146 54.1785C133.683 60.3042 134.989 66.8696 134.989 73.5H158Z" fill="#F0E9D2" stroke="#678983" stroke-width="10" mask="url(#path-1-inside-1_0_1)"/>
<path d="M19.639 84.7595L3.81255 61.6755C0.855251 57.3621 3.94371 51.5 9.17358 51.5L40.8264 51.5C46.0563 51.5 49.1447 57.3621 46.1874 61.6755L30.361 84.7595C27.7791 88.5254 22.2209 88.5254 19.639 84.7595Z" fill="#F0E9D2" stroke="#678983" stroke-width="5"/>
<path d="M20.8938 48H35L28.5 63.5L15.5 64L20.8938 48Z" fill="#F0E9D2"/>
<mask id="path-4-inside-2_0_1" fill="white">
<path d="M11 101.5C11 111.152 12.9011 120.71 16.5949 129.627C20.2886 138.545 25.7025 146.647 32.5277 153.472C39.3528 160.297 47.4553 165.711 56.3728 169.405C65.2902 173.099 74.8478 175 84.5 175C94.1522 175 103.71 173.099 112.627 169.405C121.545 165.711 129.647 160.297 136.472 153.472C143.297 146.647 148.711 138.545 152.405 129.627C156.099 120.71 158 111.152 158 101.5L134.989 101.5C134.989 108.13 133.683 114.696 131.146 120.821C128.609 126.947 124.89 132.513 120.201 137.201C115.513 141.89 109.947 145.609 103.821 148.146C97.6958 150.683 91.1304 151.989 84.5 151.989C77.8696 151.989 71.3042 150.683 65.1785 148.146C59.0529 145.609 53.487 141.89 48.7986 137.201C44.1102 132.513 40.3912 126.947 37.8539 120.821C35.3165 114.696 34.0106 108.13 34.0106 101.5L11 101.5Z"/>
</mask>
<path d="M11 101.5C11 111.152 12.9011 120.71 16.5949 129.627C20.2886 138.545 25.7025 146.647 32.5277 153.472C39.3528 160.297 47.4553 165.711 56.3728 169.405C65.2902 173.099 74.8478 175 84.5 175C94.1522 175 103.71 173.099 112.627 169.405C121.545 165.711 129.647 160.297 136.472 153.472C143.297 146.647 148.711 138.545 152.405 129.627C156.099 120.71 158 111.152 158 101.5L134.989 101.5C134.989 108.13 133.683 114.696 131.146 120.821C128.609 126.947 124.89 132.513 120.201 137.201C115.513 141.89 109.947 145.609 103.821 148.146C97.6958 150.683 91.1304 151.989 84.5 151.989C77.8696 151.989 71.3042 150.683 65.1785 148.146C59.0529 145.609 53.487 141.89 48.7986 137.201C44.1102 132.513 40.3912 126.947 37.8539 120.821C35.3165 114.696 34.0106 108.13 34.0106 101.5L11 101.5Z" fill="#F0E9D2" stroke="#678983" stroke-width="10" mask="url(#path-4-inside-2_0_1)"/>
<path d="M149.361 90.2406L165.187 113.325C168.145 117.638 165.056 123.5 159.826 123.5L128.174 123.5C122.944 123.5 119.855 117.638 122.813 113.324L138.639 90.2405C141.221 86.4746 146.779 86.4746 149.361 90.2406Z" fill="#F0E9D2" stroke="#678983" stroke-width="5"/>
<path d="M148.106 127L134 127L140.5 111.5L153.5 111L148.106 127Z" fill="#F0E9D2"/>
</svg>
