<svg width="429" height="543" viewBox="0 0 429 543" fill="none" xmlns="http://www.w3.org/2000/svg">
<path d="M193.327 528.295L192.426 528.076L191.534 528.332C149.971 540.267 104.61 542.859 69.844 534.281C52.4718 529.995 37.9794 522.978 27.8755 513.185C17.8526 503.47 12 490.891 12 475C12 470.679 11.9597 466.137 11.9178 461.416C11.609 426.629 11.2137 382.099 26.2203 344.446C34.6867 323.202 48.0159 304.303 68.9851 290.679C89.9743 277.041 118.91 268.5 158.902 268.5C198.973 268.5 227.094 275.819 247.743 287.567C268.361 299.297 281.837 315.616 292.34 334.178C300.22 348.102 306.336 363.094 312.569 378.373C314.71 383.621 316.865 388.904 319.11 394.188C327.647 414.283 337.407 434.172 352.495 450.997C352.328 474.215 347.824 491.763 340.08 504.771C332.22 517.972 320.872 526.755 306.714 532.051C278.13 542.745 238.162 539.203 193.327 528.295Z" fill="#F0E9D2" stroke="#678983" stroke-width="7"/>
<path d="M323.995 257.047C318.294 285.833 312.824 306.53 307.453 321.312C302.063 336.146 296.88 344.718 291.93 349.556C287.16 354.22 282.481 355.543 277.445 355.494C273.411 355.455 269.335 354.569 264.665 353.553C263.057 353.204 261.378 352.839 259.606 352.488C257.834 352.137 256.143 351.834 254.523 351.544C249.818 350.703 245.712 349.968 241.968 348.467C237.294 346.592 233.472 343.586 230.84 337.456C228.108 331.096 226.583 321.196 227.255 305.427C227.925 289.714 230.757 268.495 236.459 239.709C237.972 232.07 239.477 224.383 240.983 216.691C250.887 166.119 260.835 115.32 273.329 76.3084C280.535 53.8113 288.479 35.5977 297.525 23.6769C306.525 11.8152 316.061 6.81649 326.748 8.93329C337.45 11.053 344.468 19.3491 348.427 33.7897C352.403 48.2943 353.018 68.2059 351.32 91.7889C348.187 135.321 337.295 190.122 326.619 243.831C325.741 248.246 324.865 252.654 323.995 257.047Z" fill="#F0E9D2" stroke="#678983" stroke-width="7"/>
<path d="M227.591 259.535C231.89 286.522 233.511 306.372 233.112 321.037C232.712 335.739 230.286 344.907 226.785 350.789C223.38 356.51 218.766 359.442 213.093 361.268C208.656 362.696 203.828 363.39 198.433 364.165C196.606 364.427 194.714 364.699 192.75 365.012C190.786 365.325 188.903 365.654 187.085 365.973C181.716 366.912 176.911 367.753 172.25 367.774C166.291 367.801 160.994 366.448 155.98 362.068C150.825 357.565 145.671 349.604 140.723 335.754C135.787 321.938 131.16 302.567 126.861 275.58C126.513 273.394 126.161 271.187 125.806 268.962C117.357 215.99 107.25 152.627 105.295 100.77C104.275 73.7208 105.492 50.1199 110.168 32.864C114.873 15.4999 122.694 5.76546 134.051 3.95641C145.427 2.14416 156.031 8.97032 166.115 23.9868C176.134 38.9063 184.908 60.9185 192.63 86.8958C208.055 138.786 218.955 205.317 227.591 259.535Z" fill="#F0E9D2" stroke="#678983" stroke-width="7"/>
<path d="M368.514 323.935C377.707 320.242 388.964 318.592 411.544 318.504C419.24 331.461 427.934 355.814 423.125 382.54C418.176 410.042 398.792 440.797 347.409 464.496C314.16 464.127 287.5 439.46 287.5 403.972C287.5 394.975 289.162 388.311 291.837 383.002C294.516 377.683 298.322 373.504 302.94 369.621C306.396 366.715 310.164 364.083 314.225 361.247C315.688 360.225 317.19 359.176 318.728 358.078C324.335 354.078 330.22 349.566 335.741 343.726C340.492 340.746 344.619 338.018 348.261 335.611C350.437 334.174 352.439 332.85 354.298 331.655C359.452 328.344 363.765 325.843 368.514 323.935Z" fill="#F0E9D2" stroke="#678983" stroke-width="7"/>
<path d="M293.103 342C310.103 376 282.33 376.787 229.351 373.996C162.231 367.018 166 387.178 166 359.5C166 343.571 229.351 255 232.5 345.155C232.5 275.5 284.73 325.255 293.103 342Z" fill="#F0E9D2"/>
<path d="M415.302 328.04C414.684 340.988 405.786 355.393 390.925 366.414C376.157 377.367 355.909 384.637 333.454 383.567C310.962 382.494 289.489 373.206 273.831 360.703C258.014 348.072 248.885 332.818 249.49 320.133C249.79 313.855 252.082 309.431 255.873 306.153C259.79 302.765 265.564 300.385 273.134 298.859C288.335 295.796 309.236 296.452 332.659 297.569C356.074 298.685 377.46 300.045 392.816 304.573C400.472 306.83 406.254 309.775 410.017 313.553C413.655 317.205 415.599 321.819 415.302 328.04Z" fill="#F0E9D2" stroke="#678983" stroke-width="7"/>
<path d="M110.483 397.258C115.032 417.506 116.742 432.233 116.309 443.056C115.878 453.845 113.333 460.456 109.65 464.826C105.949 469.219 100.707 471.822 93.8706 473.802C89.503 475.067 84.8465 475.994 79.7521 477.008C76.6651 477.623 73.4174 478.269 69.9758 479.042C62.2934 480.768 56.4974 479.063 51.465 474.503C46.1867 469.721 41.5922 461.643 37.1447 450.275C32.7242 438.975 28.6105 424.87 24.0624 408.397C22.9905 404.514 21.8951 400.502 20.7671 396.371C17.125 383.034 13.143 368.451 8.51279 352.942C3.16576 335.033 2.00558 310.163 7.85431 290.056C10.7706 280.03 15.3593 271.427 21.795 265.413C28.0042 259.611 36.0988 256.056 46.6078 256.083C61.3374 263.514 72.7275 278.124 82.7136 301.257C92.8561 324.753 101.331 356.517 110.483 397.258Z" fill="#F0E9D2" stroke="#678983" stroke-width="7"/>
<path d="M173.162 358.715C179.201 379.264 182.29 394.521 183.192 405.952C184.095 417.404 182.777 424.707 180.322 429.588C177.927 434.349 174.248 437.205 169.458 439.361C165.727 441.039 161.595 442.193 156.972 443.484C155.406 443.921 153.783 444.374 152.101 444.868C150.419 445.363 148.809 445.86 147.255 446.34C142.67 447.756 138.57 449.021 134.524 449.628C129.329 450.407 124.69 449.996 120.1 447.288C115.395 444.512 110.334 439.083 104.898 428.964C99.4709 418.863 93.8131 404.361 87.7733 383.811C75.5967 342.382 63.6103 301.552 60.3389 269.401C58.7025 253.32 59.298 239.813 62.8792 229.641C66.3874 219.677 72.7356 212.922 83.0391 209.893C93.3426 206.865 102.336 209.111 110.678 215.593C119.194 222.209 127.003 233.246 134.328 247.655C148.973 276.463 160.985 317.285 173.162 358.715Z" fill="#F0E9D2" stroke="#678983" stroke-width="7"/>
</svg>
